<mxfile host="app.diagrams.net" modified="2020-12-11T12:17:13.199Z" agent="5.0 (Windows NT 10.0; Win64; x64) AppleWebKit/537.36 (KHTML, like Gecko) Chrome/87.0.4280.88 Safari/537.36" etag="WMh14Opg_yKjjIAWO7IM" version="13.11.0" type="github">
  <diagram id="hZZ12iHbAmKf1xC7o3fC" name="Page-1">
    <mxGraphModel dx="2249" dy="1931" grid="1" gridSize="10" guides="1" tooltips="1" connect="1" arrows="1" fold="1" page="1" pageScale="1" pageWidth="827" pageHeight="1169" math="0" shadow="0">
      <root>
        <mxCell id="0" />
        <mxCell id="1" parent="0" />
        <mxCell id="w9Y-d-V_YVhM6U8NsQ1o-1" value="CarApplication" style="swimlane;fontStyle=1;align=center;verticalAlign=top;childLayout=stackLayout;horizontal=1;startSize=26;horizontalStack=0;resizeParent=1;resizeParentMax=0;resizeLast=0;collapsible=1;marginBottom=0;" parent="1" vertex="1">
          <mxGeometry x="100" y="610" width="160" height="60" as="geometry" />
        </mxCell>
        <mxCell id="w9Y-d-V_YVhM6U8NsQ1o-3" value="" style="line;strokeWidth=1;fillColor=none;align=left;verticalAlign=middle;spacingTop=-1;spacingLeft=3;spacingRight=3;rotatable=0;labelPosition=right;points=[];portConstraint=eastwest;" parent="w9Y-d-V_YVhM6U8NsQ1o-1" vertex="1">
          <mxGeometry y="26" width="160" height="8" as="geometry" />
        </mxCell>
        <mxCell id="w9Y-d-V_YVhM6U8NsQ1o-4" value="+ main" style="text;strokeColor=none;fillColor=none;align=left;verticalAlign=top;spacingLeft=4;spacingRight=4;overflow=hidden;rotatable=0;points=[[0,0.5],[1,0.5]];portConstraint=eastwest;" parent="w9Y-d-V_YVhM6U8NsQ1o-1" vertex="1">
          <mxGeometry y="34" width="160" height="26" as="geometry" />
        </mxCell>
        <mxCell id="w9Y-d-V_YVhM6U8NsQ1o-5" value="World" style="swimlane;fontStyle=1;align=center;verticalAlign=top;childLayout=stackLayout;horizontal=1;startSize=26;horizontalStack=0;resizeParent=1;resizeParentMax=0;resizeLast=0;collapsible=1;marginBottom=0;" parent="1" vertex="1">
          <mxGeometry x="500" y="544" width="160" height="86" as="geometry" />
        </mxCell>
        <mxCell id="w9Y-d-V_YVhM6U8NsQ1o-6" value="+ cars: List&lt;ACar&gt;" style="text;strokeColor=none;fillColor=none;align=left;verticalAlign=top;spacingLeft=4;spacingRight=4;overflow=hidden;rotatable=0;points=[[0,0.5],[1,0.5]];portConstraint=eastwest;" parent="w9Y-d-V_YVhM6U8NsQ1o-5" vertex="1">
          <mxGeometry y="26" width="160" height="26" as="geometry" />
        </mxCell>
        <mxCell id="w9Y-d-V_YVhM6U8NsQ1o-7" value="" style="line;strokeWidth=1;fillColor=none;align=left;verticalAlign=middle;spacingTop=-1;spacingLeft=3;spacingRight=3;rotatable=0;labelPosition=right;points=[];portConstraint=eastwest;" parent="w9Y-d-V_YVhM6U8NsQ1o-5" vertex="1">
          <mxGeometry y="52" width="160" height="8" as="geometry" />
        </mxCell>
        <mxCell id="w9Y-d-V_YVhM6U8NsQ1o-8" value="+ update(): void" style="text;strokeColor=none;fillColor=none;align=left;verticalAlign=top;spacingLeft=4;spacingRight=4;overflow=hidden;rotatable=0;points=[[0,0.5],[1,0.5]];portConstraint=eastwest;" parent="w9Y-d-V_YVhM6U8NsQ1o-5" vertex="1">
          <mxGeometry y="60" width="160" height="26" as="geometry" />
        </mxCell>
        <mxCell id="w9Y-d-V_YVhM6U8NsQ1o-9" value="CarView" style="swimlane;fontStyle=1;align=center;verticalAlign=top;childLayout=stackLayout;horizontal=1;startSize=26;horizontalStack=0;resizeParent=1;resizeParentMax=0;resizeLast=0;collapsible=1;marginBottom=0;" parent="1" vertex="1">
          <mxGeometry x="270" y="917" width="160" height="86" as="geometry" />
        </mxCell>
        <mxCell id="w9Y-d-V_YVhM6U8NsQ1o-10" value="+ field: type" style="text;strokeColor=none;fillColor=none;align=left;verticalAlign=top;spacingLeft=4;spacingRight=4;overflow=hidden;rotatable=0;points=[[0,0.5],[1,0.5]];portConstraint=eastwest;" parent="w9Y-d-V_YVhM6U8NsQ1o-9" vertex="1">
          <mxGeometry y="26" width="160" height="26" as="geometry" />
        </mxCell>
        <mxCell id="w9Y-d-V_YVhM6U8NsQ1o-11" value="" style="line;strokeWidth=1;fillColor=none;align=left;verticalAlign=middle;spacingTop=-1;spacingLeft=3;spacingRight=3;rotatable=0;labelPosition=right;points=[];portConstraint=eastwest;" parent="w9Y-d-V_YVhM6U8NsQ1o-9" vertex="1">
          <mxGeometry y="52" width="160" height="8" as="geometry" />
        </mxCell>
        <mxCell id="w9Y-d-V_YVhM6U8NsQ1o-12" value="+ method(type): type" style="text;strokeColor=none;fillColor=none;align=left;verticalAlign=top;spacingLeft=4;spacingRight=4;overflow=hidden;rotatable=0;points=[[0,0.5],[1,0.5]];portConstraint=eastwest;" parent="w9Y-d-V_YVhM6U8NsQ1o-9" vertex="1">
          <mxGeometry y="60" width="160" height="26" as="geometry" />
        </mxCell>
        <mxCell id="w9Y-d-V_YVhM6U8NsQ1o-13" value="CarController" style="swimlane;fontStyle=1;align=center;verticalAlign=top;childLayout=stackLayout;horizontal=1;startSize=26;horizontalStack=0;resizeParent=1;resizeParentMax=0;resizeLast=0;collapsible=1;marginBottom=0;" parent="1" vertex="1">
          <mxGeometry x="310" y="658" width="160" height="86" as="geometry" />
        </mxCell>
        <mxCell id="w9Y-d-V_YVhM6U8NsQ1o-14" value="+ field: type" style="text;strokeColor=none;fillColor=none;align=left;verticalAlign=top;spacingLeft=4;spacingRight=4;overflow=hidden;rotatable=0;points=[[0,0.5],[1,0.5]];portConstraint=eastwest;" parent="w9Y-d-V_YVhM6U8NsQ1o-13" vertex="1">
          <mxGeometry y="26" width="160" height="26" as="geometry" />
        </mxCell>
        <mxCell id="w9Y-d-V_YVhM6U8NsQ1o-15" value="" style="line;strokeWidth=1;fillColor=none;align=left;verticalAlign=middle;spacingTop=-1;spacingLeft=3;spacingRight=3;rotatable=0;labelPosition=right;points=[];portConstraint=eastwest;" parent="w9Y-d-V_YVhM6U8NsQ1o-13" vertex="1">
          <mxGeometry y="52" width="160" height="8" as="geometry" />
        </mxCell>
        <mxCell id="w9Y-d-V_YVhM6U8NsQ1o-16" value="+ method(type): type" style="text;strokeColor=none;fillColor=none;align=left;verticalAlign=top;spacingLeft=4;spacingRight=4;overflow=hidden;rotatable=0;points=[[0,0.5],[1,0.5]];portConstraint=eastwest;" parent="w9Y-d-V_YVhM6U8NsQ1o-13" vertex="1">
          <mxGeometry y="60" width="160" height="26" as="geometry" />
        </mxCell>
        <mxCell id="w9Y-d-V_YVhM6U8NsQ1o-19" value="Use" style="endArrow=open;endSize=12;dashed=1;html=1;exitX=0.986;exitY=1.034;exitDx=0;exitDy=0;exitPerimeter=0;entryX=0;entryY=0.5;entryDx=0;entryDy=0;" parent="1" source="w9Y-d-V_YVhM6U8NsQ1o-4" target="w9Y-d-V_YVhM6U8NsQ1o-14" edge="1">
          <mxGeometry width="160" relative="1" as="geometry">
            <mxPoint x="380" y="674" as="sourcePoint" />
            <mxPoint x="540" y="674" as="targetPoint" />
          </mxGeometry>
        </mxCell>
        <mxCell id="w9Y-d-V_YVhM6U8NsQ1o-20" value="JFrame" style="rounded=0;whiteSpace=wrap;html=1;" parent="1" vertex="1">
          <mxGeometry x="40" y="724" width="120" height="60" as="geometry" />
        </mxCell>
        <mxCell id="w9Y-d-V_YVhM6U8NsQ1o-26" value="Extends" style="endArrow=block;endSize=16;endFill=0;html=1;exitX=0.688;exitY=-0.012;exitDx=0;exitDy=0;exitPerimeter=0;" parent="1" source="le6mXUpzl0C8kMdK8ceL-13" target="le6mXUpzl0C8kMdK8ceL-32" edge="1">
          <mxGeometry width="160" relative="1" as="geometry">
            <mxPoint x="250" y="290" as="sourcePoint" />
            <mxPoint x="230" y="60" as="targetPoint" />
          </mxGeometry>
        </mxCell>
        <mxCell id="w9Y-d-V_YVhM6U8NsQ1o-27" value="Extends" style="endArrow=block;endSize=16;endFill=0;html=1;exitX=0.5;exitY=0;exitDx=0;exitDy=0;" parent="1" source="le6mXUpzl0C8kMdK8ceL-17" target="le6mXUpzl0C8kMdK8ceL-32" edge="1">
          <mxGeometry width="160" relative="1" as="geometry">
            <mxPoint x="40" y="290" as="sourcePoint" />
            <mxPoint x="270" y="60" as="targetPoint" />
            <Array as="points">
              <mxPoint x="-100" y="160" />
            </Array>
          </mxGeometry>
        </mxCell>
        <mxCell id="w9Y-d-V_YVhM6U8NsQ1o-28" value="" style="endArrow=block;endSize=16;endFill=0;html=1;exitX=0.444;exitY=-0.023;exitDx=0;exitDy=0;exitPerimeter=0;" parent="1" source="le6mXUpzl0C8kMdK8ceL-9" target="le6mXUpzl0C8kMdK8ceL-32" edge="1">
          <mxGeometry x="-0.0105" width="160" relative="1" as="geometry">
            <mxPoint x="430" y="290" as="sourcePoint" />
            <mxPoint x="310" y="90" as="targetPoint" />
            <mxPoint as="offset" />
            <Array as="points">
              <mxPoint x="430" y="150" />
              <mxPoint x="250" y="90" />
            </Array>
          </mxGeometry>
        </mxCell>
        <mxCell id="w9Y-d-V_YVhM6U8NsQ1o-30" value="" style="endArrow=open;endFill=1;endSize=12;html=1;exitX=0.75;exitY=0;exitDx=0;exitDy=0;entryX=1;entryY=0.5;entryDx=0;entryDy=0;" parent="1" source="w9Y-d-V_YVhM6U8NsQ1o-5" target="le6mXUpzl0C8kMdK8ceL-32" edge="1">
          <mxGeometry width="160" relative="1" as="geometry">
            <mxPoint x="540" y="250" as="sourcePoint" />
            <mxPoint x="310" y="40" as="targetPoint" />
            <Array as="points">
              <mxPoint x="620" y="-50" />
            </Array>
          </mxGeometry>
        </mxCell>
        <mxCell id="w9Y-d-V_YVhM6U8NsQ1o-31" value="Use" style="endArrow=open;endSize=12;dashed=1;html=1;exitX=0.55;exitY=-0.05;exitDx=0;exitDy=0;entryX=0.681;entryY=1.077;entryDx=0;entryDy=0;entryPerimeter=0;exitPerimeter=0;" parent="1" source="w9Y-d-V_YVhM6U8NsQ1o-1" target="le6mXUpzl0C8kMdK8ceL-16" edge="1">
          <mxGeometry width="160" relative="1" as="geometry">
            <mxPoint x="480" y="280" as="sourcePoint" />
            <mxPoint x="270.7600000000002" y="350.4200000000001" as="targetPoint" />
          </mxGeometry>
        </mxCell>
        <mxCell id="w9Y-d-V_YVhM6U8NsQ1o-32" value="Use" style="endArrow=open;endSize=12;dashed=1;html=1;exitX=0.363;exitY=-0.023;exitDx=0;exitDy=0;exitPerimeter=0;entryX=0.494;entryY=0.962;entryDx=0;entryDy=0;entryPerimeter=0;" parent="1" source="w9Y-d-V_YVhM6U8NsQ1o-1" target="le6mXUpzl0C8kMdK8ceL-20" edge="1">
          <mxGeometry width="160" relative="1" as="geometry">
            <mxPoint x="590" y="260" as="sourcePoint" />
            <mxPoint x="58.960000000000036" y="352.1600000000001" as="targetPoint" />
          </mxGeometry>
        </mxCell>
        <mxCell id="w9Y-d-V_YVhM6U8NsQ1o-33" value="Use" style="endArrow=open;endSize=12;dashed=1;html=1;entryX=0.506;entryY=1.038;entryDx=0;entryDy=0;entryPerimeter=0;exitX=0.75;exitY=0;exitDx=0;exitDy=0;" parent="1" source="w9Y-d-V_YVhM6U8NsQ1o-1" target="le6mXUpzl0C8kMdK8ceL-12" edge="1">
          <mxGeometry width="160" relative="1" as="geometry">
            <mxPoint x="160" y="383" as="sourcePoint" />
            <mxPoint x="344.96000000000004" y="530" as="targetPoint" />
          </mxGeometry>
        </mxCell>
        <mxCell id="w9Y-d-V_YVhM6U8NsQ1o-35" value="" style="endArrow=open;endFill=1;endSize=12;html=1;exitX=1;exitY=0.5;exitDx=0;exitDy=0;entryX=-0.008;entryY=0.14;entryDx=0;entryDy=0;entryPerimeter=0;" parent="1" source="w9Y-d-V_YVhM6U8NsQ1o-14" target="NLHMOBEEFWS5BvYAQ-iJ-2" edge="1">
          <mxGeometry width="160" relative="1" as="geometry">
            <mxPoint x="600" y="844" as="sourcePoint" />
            <mxPoint x="760" y="844" as="targetPoint" />
          </mxGeometry>
        </mxCell>
        <mxCell id="w9Y-d-V_YVhM6U8NsQ1o-36" value="JPanel" style="rounded=0;whiteSpace=wrap;html=1;" parent="1" vertex="1">
          <mxGeometry x="320" y="797" width="120" height="60" as="geometry" />
        </mxCell>
        <mxCell id="w9Y-d-V_YVhM6U8NsQ1o-37" value="Extends" style="endArrow=block;endSize=16;endFill=0;html=1;exitX=0.75;exitY=0;exitDx=0;exitDy=0;entryX=0.5;entryY=1;entryDx=0;entryDy=0;" parent="1" source="w9Y-d-V_YVhM6U8NsQ1o-9" target="w9Y-d-V_YVhM6U8NsQ1o-36" edge="1">
          <mxGeometry width="160" relative="1" as="geometry">
            <mxPoint x="470" y="944" as="sourcePoint" />
            <mxPoint x="310" y="944" as="targetPoint" />
          </mxGeometry>
        </mxCell>
        <mxCell id="w9Y-d-V_YVhM6U8NsQ1o-41" value="Updater &lt;= ActionListener" style="swimlane;fontStyle=1;align=center;verticalAlign=top;childLayout=stackLayout;horizontal=1;startSize=26;horizontalStack=0;resizeParent=1;resizeParentMax=0;resizeLast=0;collapsible=1;marginBottom=0;" parent="1" vertex="1">
          <mxGeometry x="250" y="1050" width="190" height="60" as="geometry" />
        </mxCell>
        <mxCell id="w9Y-d-V_YVhM6U8NsQ1o-42" value="" style="line;strokeWidth=1;fillColor=none;align=left;verticalAlign=middle;spacingTop=-1;spacingLeft=3;spacingRight=3;rotatable=0;labelPosition=right;points=[];portConstraint=eastwest;" parent="w9Y-d-V_YVhM6U8NsQ1o-41" vertex="1">
          <mxGeometry y="26" width="190" height="8" as="geometry" />
        </mxCell>
        <mxCell id="w9Y-d-V_YVhM6U8NsQ1o-43" value="+ actionPerformed(ActionEvent)" style="text;strokeColor=none;fillColor=none;align=left;verticalAlign=top;spacingLeft=4;spacingRight=4;overflow=hidden;rotatable=0;points=[[0,0.5],[1,0.5]];portConstraint=eastwest;" parent="w9Y-d-V_YVhM6U8NsQ1o-41" vertex="1">
          <mxGeometry y="34" width="190" height="26" as="geometry" />
        </mxCell>
        <mxCell id="w9Y-d-V_YVhM6U8NsQ1o-40" value="Use" style="endArrow=open;endSize=12;dashed=1;html=1;exitX=0.185;exitY=1.034;exitDx=0;exitDy=0;entryX=0.5;entryY=0;entryDx=0;entryDy=0;exitPerimeter=0;" parent="1" source="w9Y-d-V_YVhM6U8NsQ1o-4" target="w9Y-d-V_YVhM6U8NsQ1o-20" edge="1">
          <mxGeometry width="160" relative="1" as="geometry">
            <mxPoint x="250" y="684" as="sourcePoint" />
            <mxPoint x="90" y="684" as="targetPoint" />
          </mxGeometry>
        </mxCell>
        <mxCell id="w9Y-d-V_YVhM6U8NsQ1o-39" value="Extends" style="endArrow=block;endSize=16;endFill=0;html=1;exitX=0.596;exitY=1.17;exitDx=0;exitDy=0;entryX=0.5;entryY=0;entryDx=0;entryDy=0;exitPerimeter=0;" parent="1" source="w9Y-d-V_YVhM6U8NsQ1o-16" target="w9Y-d-V_YVhM6U8NsQ1o-36" edge="1">
          <mxGeometry width="160" relative="1" as="geometry">
            <mxPoint x="330" y="804" as="sourcePoint" />
            <mxPoint x="170" y="804" as="targetPoint" />
          </mxGeometry>
        </mxCell>
        <mxCell id="jsbutnEKUS2bdixu1oas-1" value="«interface»&lt;br&gt;&lt;b&gt;ITurbo&lt;/b&gt;&lt;hr&gt;+setTurboOn&lt;br&gt;+setTurboOff" style="html=1;" parent="1" vertex="1">
          <mxGeometry x="460" y="215" width="110" height="80" as="geometry" />
        </mxCell>
        <mxCell id="jsbutnEKUS2bdixu1oas-6" value="Use" style="endArrow=open;endSize=12;dashed=1;html=1;entryX=0.682;entryY=1.02;entryDx=0;entryDy=0;exitX=1;exitY=0.5;exitDx=0;exitDy=0;entryPerimeter=0;" parent="1" source="NLHMOBEEFWS5BvYAQ-iJ-3" target="jsbutnEKUS2bdixu1oas-1" edge="1">
          <mxGeometry width="160" relative="1" as="geometry">
            <mxPoint x="580" y="230" as="sourcePoint" />
            <mxPoint x="740" y="230" as="targetPoint" />
            <Array as="points">
              <mxPoint x="710" y="737" />
              <mxPoint x="720" y="340" />
              <mxPoint x="535" y="340" />
            </Array>
          </mxGeometry>
        </mxCell>
        <mxCell id="NLHMOBEEFWS5BvYAQ-iJ-7" style="edgeStyle=none;orthogonalLoop=1;jettySize=auto;html=1;exitX=0.75;exitY=0;exitDx=0;exitDy=0;endArrow=open;endFill=1;endSize=12;" parent="1" source="NLHMOBEEFWS5BvYAQ-iJ-2" target="w9Y-d-V_YVhM6U8NsQ1o-8" edge="1">
          <mxGeometry relative="1" as="geometry" />
        </mxCell>
        <mxCell id="NLHMOBEEFWS5BvYAQ-iJ-2" value="InputHandler" style="swimlane;fontStyle=1;align=center;verticalAlign=top;childLayout=stackLayout;horizontal=1;startSize=26;horizontalStack=0;resizeParent=1;resizeParentMax=0;resizeLast=0;collapsible=1;marginBottom=0;" parent="1" vertex="1">
          <mxGeometry x="500" y="710" width="120" height="86" as="geometry" />
        </mxCell>
        <mxCell id="NLHMOBEEFWS5BvYAQ-iJ-3" value="+ field: type" style="text;strokeColor=none;fillColor=none;align=left;verticalAlign=top;spacingLeft=4;spacingRight=4;overflow=hidden;rotatable=0;points=[[0,0.5],[1,0.5]];portConstraint=eastwest;" parent="NLHMOBEEFWS5BvYAQ-iJ-2" vertex="1">
          <mxGeometry y="26" width="120" height="26" as="geometry" />
        </mxCell>
        <mxCell id="NLHMOBEEFWS5BvYAQ-iJ-4" value="" style="line;strokeWidth=1;fillColor=none;align=left;verticalAlign=middle;spacingTop=-1;spacingLeft=3;spacingRight=3;rotatable=0;labelPosition=right;points=[];portConstraint=eastwest;" parent="NLHMOBEEFWS5BvYAQ-iJ-2" vertex="1">
          <mxGeometry y="52" width="120" height="8" as="geometry" />
        </mxCell>
        <mxCell id="NLHMOBEEFWS5BvYAQ-iJ-5" value="+ method(type): type" style="text;strokeColor=none;fillColor=none;align=left;verticalAlign=top;spacingLeft=4;spacingRight=4;overflow=hidden;rotatable=0;points=[[0,0.5],[1,0.5]];portConstraint=eastwest;" parent="NLHMOBEEFWS5BvYAQ-iJ-2" vertex="1">
          <mxGeometry y="60" width="120" height="26" as="geometry" />
        </mxCell>
        <mxCell id="le6mXUpzl0C8kMdK8ceL-1" value="«interface»&lt;br&gt;&lt;b&gt;ICarTransport&lt;/b&gt;&lt;hr&gt;+loadCar&lt;br&gt;+unloadCar" style="html=1;" vertex="1" parent="1">
          <mxGeometry x="220" y="130" width="110" height="70" as="geometry" />
        </mxCell>
        <mxCell id="le6mXUpzl0C8kMdK8ceL-2" value="" style="endArrow=block;dashed=1;endFill=0;endSize=12;html=1;exitX=0.819;exitY=-0.012;exitDx=0;exitDy=0;entryX=0.25;entryY=1;entryDx=0;entryDy=0;exitPerimeter=0;" edge="1" parent="1" source="le6mXUpzl0C8kMdK8ceL-9" target="jsbutnEKUS2bdixu1oas-1">
          <mxGeometry width="160" relative="1" as="geometry">
            <mxPoint x="490" y="290" as="sourcePoint" />
            <mxPoint x="650" y="200" as="targetPoint" />
          </mxGeometry>
        </mxCell>
        <mxCell id="le6mXUpzl0C8kMdK8ceL-3" value="" style="endArrow=block;dashed=1;endFill=0;endSize=12;html=1;exitX=1;exitY=0;exitDx=0;exitDy=0;entryX=0.25;entryY=1;entryDx=0;entryDy=0;" edge="1" parent="1" source="le6mXUpzl0C8kMdK8ceL-13" target="le6mXUpzl0C8kMdK8ceL-1">
          <mxGeometry width="160" relative="1" as="geometry">
            <mxPoint x="310" y="290" as="sourcePoint" />
            <mxPoint x="300" y="251" as="targetPoint" />
          </mxGeometry>
        </mxCell>
        <mxCell id="le6mXUpzl0C8kMdK8ceL-9" value="Saab95" style="swimlane;fontStyle=1;align=center;verticalAlign=top;childLayout=stackLayout;horizontal=1;startSize=26;horizontalStack=0;resizeParent=1;resizeParentMax=0;resizeLast=0;collapsible=1;marginBottom=0;" vertex="1" parent="1">
          <mxGeometry x="360" y="320" width="160" height="86" as="geometry" />
        </mxCell>
        <mxCell id="le6mXUpzl0C8kMdK8ceL-10" value="+ field: type" style="text;strokeColor=none;fillColor=none;align=left;verticalAlign=top;spacingLeft=4;spacingRight=4;overflow=hidden;rotatable=0;points=[[0,0.5],[1,0.5]];portConstraint=eastwest;" vertex="1" parent="le6mXUpzl0C8kMdK8ceL-9">
          <mxGeometry y="26" width="160" height="26" as="geometry" />
        </mxCell>
        <mxCell id="le6mXUpzl0C8kMdK8ceL-11" value="" style="line;strokeWidth=1;fillColor=none;align=left;verticalAlign=middle;spacingTop=-1;spacingLeft=3;spacingRight=3;rotatable=0;labelPosition=right;points=[];portConstraint=eastwest;" vertex="1" parent="le6mXUpzl0C8kMdK8ceL-9">
          <mxGeometry y="52" width="160" height="8" as="geometry" />
        </mxCell>
        <mxCell id="le6mXUpzl0C8kMdK8ceL-12" value="+ method(type): type" style="text;strokeColor=none;fillColor=none;align=left;verticalAlign=top;spacingLeft=4;spacingRight=4;overflow=hidden;rotatable=0;points=[[0,0.5],[1,0.5]];portConstraint=eastwest;" vertex="1" parent="le6mXUpzl0C8kMdK8ceL-9">
          <mxGeometry y="60" width="160" height="26" as="geometry" />
        </mxCell>
        <mxCell id="le6mXUpzl0C8kMdK8ceL-13" value="Scania" style="swimlane;fontStyle=1;align=center;verticalAlign=top;childLayout=stackLayout;horizontal=1;startSize=26;horizontalStack=0;resizeParent=1;resizeParentMax=0;resizeLast=0;collapsible=1;marginBottom=0;" vertex="1" parent="1">
          <mxGeometry x="90" y="330" width="160" height="86" as="geometry" />
        </mxCell>
        <mxCell id="le6mXUpzl0C8kMdK8ceL-14" value="+ field: type" style="text;strokeColor=none;fillColor=none;align=left;verticalAlign=top;spacingLeft=4;spacingRight=4;overflow=hidden;rotatable=0;points=[[0,0.5],[1,0.5]];portConstraint=eastwest;" vertex="1" parent="le6mXUpzl0C8kMdK8ceL-13">
          <mxGeometry y="26" width="160" height="26" as="geometry" />
        </mxCell>
        <mxCell id="le6mXUpzl0C8kMdK8ceL-15" value="" style="line;strokeWidth=1;fillColor=none;align=left;verticalAlign=middle;spacingTop=-1;spacingLeft=3;spacingRight=3;rotatable=0;labelPosition=right;points=[];portConstraint=eastwest;" vertex="1" parent="le6mXUpzl0C8kMdK8ceL-13">
          <mxGeometry y="52" width="160" height="8" as="geometry" />
        </mxCell>
        <mxCell id="le6mXUpzl0C8kMdK8ceL-16" value="+ method(type): type" style="text;strokeColor=none;fillColor=none;align=left;verticalAlign=top;spacingLeft=4;spacingRight=4;overflow=hidden;rotatable=0;points=[[0,0.5],[1,0.5]];portConstraint=eastwest;" vertex="1" parent="le6mXUpzl0C8kMdK8ceL-13">
          <mxGeometry y="60" width="160" height="26" as="geometry" />
        </mxCell>
        <mxCell id="le6mXUpzl0C8kMdK8ceL-17" value="Volvo240" style="swimlane;fontStyle=1;align=center;verticalAlign=top;childLayout=stackLayout;horizontal=1;startSize=26;horizontalStack=0;resizeParent=1;resizeParentMax=0;resizeLast=0;collapsible=1;marginBottom=0;" vertex="1" parent="1">
          <mxGeometry x="-260" y="295" width="160" height="86" as="geometry" />
        </mxCell>
        <mxCell id="le6mXUpzl0C8kMdK8ceL-18" value="+ field: type" style="text;strokeColor=none;fillColor=none;align=left;verticalAlign=top;spacingLeft=4;spacingRight=4;overflow=hidden;rotatable=0;points=[[0,0.5],[1,0.5]];portConstraint=eastwest;" vertex="1" parent="le6mXUpzl0C8kMdK8ceL-17">
          <mxGeometry y="26" width="160" height="26" as="geometry" />
        </mxCell>
        <mxCell id="le6mXUpzl0C8kMdK8ceL-19" value="" style="line;strokeWidth=1;fillColor=none;align=left;verticalAlign=middle;spacingTop=-1;spacingLeft=3;spacingRight=3;rotatable=0;labelPosition=right;points=[];portConstraint=eastwest;" vertex="1" parent="le6mXUpzl0C8kMdK8ceL-17">
          <mxGeometry y="52" width="160" height="8" as="geometry" />
        </mxCell>
        <mxCell id="le6mXUpzl0C8kMdK8ceL-20" value="+ method(type): type" style="text;strokeColor=none;fillColor=none;align=left;verticalAlign=top;spacingLeft=4;spacingRight=4;overflow=hidden;rotatable=0;points=[[0,0.5],[1,0.5]];portConstraint=eastwest;" vertex="1" parent="le6mXUpzl0C8kMdK8ceL-17">
          <mxGeometry y="60" width="160" height="26" as="geometry" />
        </mxCell>
        <mxCell id="le6mXUpzl0C8kMdK8ceL-21" value="" style="endArrow=open;endFill=1;endSize=12;html=1;exitX=1;exitY=0.25;exitDx=0;exitDy=0;entryX=0;entryY=0.5;entryDx=0;entryDy=0;" edge="1" parent="1" source="w9Y-d-V_YVhM6U8NsQ1o-1" target="w9Y-d-V_YVhM6U8NsQ1o-6">
          <mxGeometry width="160" relative="1" as="geometry">
            <mxPoint x="240" y="550" as="sourcePoint" />
            <mxPoint x="400" y="550" as="targetPoint" />
          </mxGeometry>
        </mxCell>
        <mxCell id="le6mXUpzl0C8kMdK8ceL-22" value="Use" style="endArrow=open;endSize=12;dashed=1;html=1;exitX=1;exitY=0.5;exitDx=0;exitDy=0;entryX=1;entryY=0.5;entryDx=0;entryDy=0;" edge="1" parent="1" source="w9Y-d-V_YVhM6U8NsQ1o-10" target="le6mXUpzl0C8kMdK8ceL-33">
          <mxGeometry width="160" relative="1" as="geometry">
            <mxPoint x="480" y="960" as="sourcePoint" />
            <mxPoint x="310.96000000000004" y="19" as="targetPoint" />
            <Array as="points">
              <mxPoint x="780" y="960" />
              <mxPoint x="780" y="-125" />
            </Array>
          </mxGeometry>
        </mxCell>
        <mxCell id="le6mXUpzl0C8kMdK8ceL-23" value="«interface»&lt;br&gt;&lt;b&gt;IUpdatable&lt;/b&gt;&lt;hr&gt;+Update" style="html=1;" vertex="1" parent="1">
          <mxGeometry x="760" y="1060" width="110" height="70" as="geometry" />
        </mxCell>
        <mxCell id="le6mXUpzl0C8kMdK8ceL-24" value="" style="endArrow=open;endFill=1;endSize=12;html=1;exitX=0;exitY=0.25;exitDx=0;exitDy=0;entryX=0.874;entryY=1.115;entryDx=0;entryDy=0;entryPerimeter=0;" edge="1" parent="1" source="le6mXUpzl0C8kMdK8ceL-23" target="w9Y-d-V_YVhM6U8NsQ1o-43">
          <mxGeometry width="160" relative="1" as="geometry">
            <mxPoint x="790" y="1010" as="sourcePoint" />
            <mxPoint x="950" y="1010" as="targetPoint" />
          </mxGeometry>
        </mxCell>
        <mxCell id="le6mXUpzl0C8kMdK8ceL-25" value="" style="endArrow=block;dashed=1;endFill=0;endSize=12;html=1;exitX=0.463;exitY=1.038;exitDx=0;exitDy=0;exitPerimeter=0;entryX=0.5;entryY=1;entryDx=0;entryDy=0;" edge="1" parent="1" source="w9Y-d-V_YVhM6U8NsQ1o-12" target="le6mXUpzl0C8kMdK8ceL-23">
          <mxGeometry width="160" relative="1" as="geometry">
            <mxPoint x="320" y="1020" as="sourcePoint" />
            <mxPoint x="480" y="1020" as="targetPoint" />
          </mxGeometry>
        </mxCell>
        <mxCell id="le6mXUpzl0C8kMdK8ceL-26" value="" style="endArrow=block;dashed=1;endFill=0;endSize=12;html=1;exitX=1;exitY=0.5;exitDx=0;exitDy=0;entryX=0.5;entryY=0;entryDx=0;entryDy=0;" edge="1" parent="1" source="w9Y-d-V_YVhM6U8NsQ1o-6" target="le6mXUpzl0C8kMdK8ceL-23">
          <mxGeometry width="160" relative="1" as="geometry">
            <mxPoint x="780" y="1000" as="sourcePoint" />
            <mxPoint x="940" y="1000" as="targetPoint" />
          </mxGeometry>
        </mxCell>
        <mxCell id="le6mXUpzl0C8kMdK8ceL-27" value="" style="endArrow=open;endFill=1;endSize=12;html=1;exitX=0;exitY=0.25;exitDx=0;exitDy=0;entryX=0;entryY=0.5;entryDx=0;entryDy=0;" edge="1" parent="1" source="w9Y-d-V_YVhM6U8NsQ1o-1" target="w9Y-d-V_YVhM6U8NsQ1o-43">
          <mxGeometry width="160" relative="1" as="geometry">
            <mxPoint x="50" y="1010" as="sourcePoint" />
            <mxPoint x="260" y="1030" as="targetPoint" />
            <Array as="points">
              <mxPoint x="-80" y="630" />
              <mxPoint x="-20" y="1120" />
            </Array>
          </mxGeometry>
        </mxCell>
        <mxCell id="le6mXUpzl0C8kMdK8ceL-28" value="" style="endArrow=open;endFill=1;endSize=12;html=1;entryX=0.138;entryY=0.023;entryDx=0;entryDy=0;entryPerimeter=0;" edge="1" parent="1" source="w9Y-d-V_YVhM6U8NsQ1o-4" target="w9Y-d-V_YVhM6U8NsQ1o-9">
          <mxGeometry width="160" relative="1" as="geometry">
            <mxPoint x="70" y="820" as="sourcePoint" />
            <mxPoint x="230" y="820" as="targetPoint" />
          </mxGeometry>
        </mxCell>
        <mxCell id="le6mXUpzl0C8kMdK8ceL-29" value="ACar" style="swimlane;fontStyle=1;align=center;verticalAlign=top;childLayout=stackLayout;horizontal=1;startSize=26;horizontalStack=0;resizeParent=1;resizeParentMax=0;resizeLast=0;collapsible=1;marginBottom=0;" vertex="1" parent="1">
          <mxGeometry x="120" y="-130" width="160" height="86" as="geometry" />
        </mxCell>
        <mxCell id="le6mXUpzl0C8kMdK8ceL-30" value="+ field: type" style="text;strokeColor=none;fillColor=none;align=left;verticalAlign=top;spacingLeft=4;spacingRight=4;overflow=hidden;rotatable=0;points=[[0,0.5],[1,0.5]];portConstraint=eastwest;" vertex="1" parent="le6mXUpzl0C8kMdK8ceL-29">
          <mxGeometry y="26" width="160" height="26" as="geometry" />
        </mxCell>
        <mxCell id="le6mXUpzl0C8kMdK8ceL-31" value="" style="line;strokeWidth=1;fillColor=none;align=left;verticalAlign=middle;spacingTop=-1;spacingLeft=3;spacingRight=3;rotatable=0;labelPosition=right;points=[];portConstraint=eastwest;" vertex="1" parent="le6mXUpzl0C8kMdK8ceL-29">
          <mxGeometry y="52" width="160" height="8" as="geometry" />
        </mxCell>
        <mxCell id="le6mXUpzl0C8kMdK8ceL-32" value="+ getNrDoors(): int" style="text;strokeColor=none;fillColor=none;align=left;verticalAlign=top;spacingLeft=4;spacingRight=4;overflow=hidden;rotatable=0;points=[[0,0.5],[1,0.5]];portConstraint=eastwest;" vertex="1" parent="le6mXUpzl0C8kMdK8ceL-29">
          <mxGeometry y="60" width="160" height="26" as="geometry" />
        </mxCell>
        <mxCell id="le6mXUpzl0C8kMdK8ceL-33" value="«interface»&lt;br&gt;&lt;b&gt;IMovable&lt;/b&gt;" style="html=1;" vertex="1" parent="1">
          <mxGeometry x="414" y="-150" width="110" height="50" as="geometry" />
        </mxCell>
        <mxCell id="le6mXUpzl0C8kMdK8ceL-34" value="" style="endArrow=block;dashed=1;endFill=0;endSize=12;html=1;exitX=1;exitY=0;exitDx=0;exitDy=0;entryX=0;entryY=0.5;entryDx=0;entryDy=0;" edge="1" parent="1" source="le6mXUpzl0C8kMdK8ceL-29" target="le6mXUpzl0C8kMdK8ceL-33">
          <mxGeometry width="160" relative="1" as="geometry">
            <mxPoint x="300" y="-120" as="sourcePoint" />
            <mxPoint x="460" y="-120" as="targetPoint" />
          </mxGeometry>
        </mxCell>
        <mxCell id="le6mXUpzl0C8kMdK8ceL-35" value="Use" style="endArrow=open;endSize=12;dashed=1;html=1;exitX=0;exitY=0.5;exitDx=0;exitDy=0;entryX=0.238;entryY=0.962;entryDx=0;entryDy=0;entryPerimeter=0;" edge="1" parent="1" source="w9Y-d-V_YVhM6U8NsQ1o-10" target="le6mXUpzl0C8kMdK8ceL-20">
          <mxGeometry width="160" relative="1" as="geometry">
            <mxPoint x="70" y="920" as="sourcePoint" />
            <mxPoint x="230" y="920" as="targetPoint" />
            <Array as="points">
              <mxPoint x="-160" y="956" />
              <mxPoint x="-160" y="510" />
              <mxPoint x="-222" y="460" />
            </Array>
          </mxGeometry>
        </mxCell>
        <mxCell id="le6mXUpzl0C8kMdK8ceL-36" value="Use" style="endArrow=open;endSize=12;dashed=1;html=1;exitX=0;exitY=0.5;exitDx=0;exitDy=0;entryX=0.375;entryY=1;entryDx=0;entryDy=0;entryPerimeter=0;" edge="1" parent="1" source="w9Y-d-V_YVhM6U8NsQ1o-10" target="le6mXUpzl0C8kMdK8ceL-16">
          <mxGeometry width="160" relative="1" as="geometry">
            <mxPoint x="30" y="900" as="sourcePoint" />
            <mxPoint x="190" y="900" as="targetPoint" />
            <Array as="points">
              <mxPoint x="-160" y="956" />
              <mxPoint x="-160" y="510" />
              <mxPoint x="-30" y="510" />
            </Array>
          </mxGeometry>
        </mxCell>
        <mxCell id="le6mXUpzl0C8kMdK8ceL-37" value="Use" style="endArrow=open;endSize=12;dashed=1;html=1;exitX=0;exitY=0.5;exitDx=0;exitDy=0;entryX=0.269;entryY=0.962;entryDx=0;entryDy=0;entryPerimeter=0;" edge="1" parent="1" source="w9Y-d-V_YVhM6U8NsQ1o-10" target="le6mXUpzl0C8kMdK8ceL-12">
          <mxGeometry width="160" relative="1" as="geometry">
            <mxPoint x="140" y="970" as="sourcePoint" />
            <mxPoint x="300" y="970" as="targetPoint" />
            <Array as="points">
              <mxPoint x="-160" y="956" />
              <mxPoint x="-160" y="510" />
              <mxPoint x="403" y="490" />
            </Array>
          </mxGeometry>
        </mxCell>
        <mxCell id="le6mXUpzl0C8kMdK8ceL-38" value="Platform" style="swimlane;fontStyle=1;align=center;verticalAlign=top;childLayout=stackLayout;horizontal=1;startSize=26;horizontalStack=0;resizeParent=1;resizeParentMax=0;resizeLast=0;collapsible=1;marginBottom=0;" vertex="1" parent="1">
          <mxGeometry y="175" width="170" height="120" as="geometry" />
        </mxCell>
        <mxCell id="le6mXUpzl0C8kMdK8ceL-39" value="- angle: double&#xa;- maxAngle: double" style="text;strokeColor=none;fillColor=none;align=left;verticalAlign=top;spacingLeft=4;spacingRight=4;overflow=hidden;rotatable=0;points=[[0,0.5],[1,0.5]];portConstraint=eastwest;" vertex="1" parent="le6mXUpzl0C8kMdK8ceL-38">
          <mxGeometry y="26" width="170" height="44" as="geometry" />
        </mxCell>
        <mxCell id="le6mXUpzl0C8kMdK8ceL-40" value="" style="line;strokeWidth=1;fillColor=none;align=left;verticalAlign=middle;spacingTop=-1;spacingLeft=3;spacingRight=3;rotatable=0;labelPosition=right;points=[];portConstraint=eastwest;" vertex="1" parent="le6mXUpzl0C8kMdK8ceL-38">
          <mxGeometry y="70" width="170" height="8" as="geometry" />
        </mxCell>
        <mxCell id="le6mXUpzl0C8kMdK8ceL-41" value="+ movePlatform(double): void&#xa;+ platformLowered(): bool" style="text;strokeColor=none;fillColor=none;align=left;verticalAlign=top;spacingLeft=4;spacingRight=4;overflow=hidden;rotatable=0;points=[[0,0.5],[1,0.5]];portConstraint=eastwest;" vertex="1" parent="le6mXUpzl0C8kMdK8ceL-38">
          <mxGeometry y="78" width="170" height="42" as="geometry" />
        </mxCell>
        <mxCell id="le6mXUpzl0C8kMdK8ceL-42" value="" style="endArrow=open;endFill=1;endSize=12;html=1;exitX=0.25;exitY=0;exitDx=0;exitDy=0;entryX=0.713;entryY=1.038;entryDx=0;entryDy=0;entryPerimeter=0;" edge="1" parent="1" source="le6mXUpzl0C8kMdK8ceL-13" target="le6mXUpzl0C8kMdK8ceL-41">
          <mxGeometry width="160" relative="1" as="geometry">
            <mxPoint x="-90" y="220" as="sourcePoint" />
            <mxPoint x="70" y="220" as="targetPoint" />
          </mxGeometry>
        </mxCell>
        <mxCell id="le6mXUpzl0C8kMdK8ceL-43" value="«interface»&lt;br&gt;&lt;b&gt;IPlatform&lt;/b&gt;&lt;hr&gt;&lt;span style=&quot;text-align: left&quot;&gt;+ movePlatform(double): void&lt;br&gt;&lt;/span&gt;+ platformLowered(): bool&lt;span style=&quot;text-align: left&quot;&gt;&lt;br&gt;&lt;/span&gt;" style="html=1;" vertex="1" parent="1">
          <mxGeometry x="254" y="210" width="160" height="80" as="geometry" />
        </mxCell>
        <mxCell id="le6mXUpzl0C8kMdK8ceL-46" value="" style="endArrow=block;dashed=1;endFill=0;endSize=12;html=1;exitX=0.5;exitY=0;exitDx=0;exitDy=0;entryX=0.5;entryY=1;entryDx=0;entryDy=0;" edge="1" parent="1" source="le6mXUpzl0C8kMdK8ceL-13" target="le6mXUpzl0C8kMdK8ceL-43">
          <mxGeometry width="160" relative="1" as="geometry">
            <mxPoint x="120" y="230" as="sourcePoint" />
            <mxPoint x="280" y="230" as="targetPoint" />
          </mxGeometry>
        </mxCell>
        <mxCell id="le6mXUpzl0C8kMdK8ceL-47" value="Use" style="endArrow=open;endSize=12;dashed=1;html=1;exitX=1;exitY=0.5;exitDx=0;exitDy=0;" edge="1" parent="1" source="NLHMOBEEFWS5BvYAQ-iJ-3" target="le6mXUpzl0C8kMdK8ceL-43">
          <mxGeometry width="160" relative="1" as="geometry">
            <mxPoint x="660" y="280" as="sourcePoint" />
            <mxPoint x="820" y="280" as="targetPoint" />
          </mxGeometry>
        </mxCell>
      </root>
    </mxGraphModel>
  </diagram>
</mxfile>
